<svg width="13" height="19" viewBox="0 0 13 19" fill="none" xmlns="http://www.w3.org/2000/svg">
<path d="M6.125 9.0625C5.54484 9.0625 4.98844 8.83203 4.5782 8.4218C4.16797 8.01156 3.9375 7.45516 3.9375 6.875C3.9375 6.29484 4.16797 5.73844 4.5782 5.3282C4.98844 4.91797 5.54484 4.6875 6.125 4.6875C6.70516 4.6875 7.26156 4.91797 7.6718 5.3282C8.08203 5.73844 8.3125 6.29484 8.3125 6.875C8.3125 7.16227 8.25592 7.44672 8.14599 7.71212C8.03605 7.97752 7.87492 8.21867 7.6718 8.4218C7.46867 8.62492 7.22752 8.78605 6.96212 8.89599C6.69672 9.00592 6.41227 9.0625 6.125 9.0625ZM6.125 0.75C4.50055 0.75 2.94263 1.39531 1.79397 2.54397C0.645311 3.69263 0 5.25055 0 6.875C0 11.4688 6.125 18.25 6.125 18.25C6.125 18.25 12.25 11.4688 12.25 6.875C12.25 5.25055 11.6047 3.69263 10.456 2.54397C9.30737 1.39531 7.74945 0.75 6.125 0.75Z" fill="#FB0F40"/>
</svg>
