<svg width="18" height="17" viewBox="0 0 18 17" fill="none" xmlns="http://www.w3.org/2000/svg">
<path d="M12.5568 10.9061L12.1018 11.3591C12.1018 11.3591 11.0188 12.4351 8.0638 9.49706C5.10882 6.55903 6.19181 5.48302 6.19181 5.48302L6.47781 5.19702C7.18481 4.49502 7.25181 3.36701 6.63481 2.543L5.37482 0.859986C4.61082 -0.160022 3.13584 -0.295023 2.26084 0.574984L0.690852 2.135C0.257854 2.567 -0.0321438 3.125 0.00285598 3.74501C0.0928554 5.33202 0.81085 8.74505 4.81482 12.7271C9.0618 16.9491 13.0468 17.1171 14.6758 16.9651C15.1918 16.9171 15.6398 16.6551 16.0007 16.2951L17.4207 14.8831C18.3807 13.9301 18.1107 12.2951 16.8827 11.6281L14.9728 10.5891C14.1668 10.1521 13.1868 10.2801 12.5568 10.9061Z" fill="#FB0F40"/>
</svg>
